<?xml version="1.0" encoding="utf-8"?>
<!-- Generator: Adobe Illustrator 23.0.0, SVG Export Plug-In . SVG Version: 6.00 Build 0)  -->
<svg version="1.1" id="Objects" xmlns="http://www.w3.org/2000/svg" xmlns:xlink="http://www.w3.org/1999/xlink" x="0px" y="0px"
	 viewBox="0 0 448.9 345.9" style="enable-background:new 0 0 448.9 345.9;" xml:space="preserve">
<style type="text/css">
	.st0{fill:none;stroke:#FFFFFF;stroke-width:3;stroke-linecap:round;stroke-linejoin:round;stroke-miterlimit:10;}
	.st1{fill:none;stroke:#FFFFFF;stroke-width:2;stroke-linecap:round;stroke-linejoin:round;stroke-miterlimit:10;}
	.st2{fill:#FFFFFF;}
	.st3{fill:none;stroke:#FED402;stroke-width:3;stroke-linecap:round;stroke-linejoin:round;stroke-miterlimit:10;}
	.st4{fill:#FFD400;}
	.st5{fill:#FFD400;stroke:#FFFFFF;stroke-width:2;stroke-linecap:round;stroke-linejoin:round;stroke-miterlimit:10;}
	.st6{fill:#FFD400;stroke:#FFFFFF;stroke-width:3;stroke-linecap:round;stroke-linejoin:round;stroke-miterlimit:10;}
	.st7{fill:#FFD833;}
	.st8{fill:#FF9331;}
</style>
<g>
	<line class="st0" x1="252.9" y1="216.5" x2="405.6" y2="216.5"/>
	<line class="st0" x1="275.1" y1="226.9" x2="360.5" y2="226.9"/>
	<line class="st0" x1="362.9" y1="238.2" x2="411.7" y2="238.2"/>
</g>
<g>
	<g>
		<line class="st0" x1="56.9" y1="117" x2="209.5" y2="117"/>
		<line class="st0" x1="224.7" y1="117.5" x2="243.5" y2="117.5"/>
		<line class="st0" x1="258.2" y1="117.5" x2="305.1" y2="117.5"/>
	</g>
	<line class="st0" x1="41.2" y1="106.5" x2="193.9" y2="106.5"/>
</g>
<g>
	<line class="st0" x1="220.3" y1="302.9" x2="251.3" y2="302.9"/>
	<line class="st0" x1="215" y1="313.4" x2="247.1" y2="313.4"/>
</g>
<g>
	<line class="st0" x1="202.8" y1="69.5" x2="233.9" y2="69.5"/>
	<line class="st0" x1="197.6" y1="80" x2="229.7" y2="80"/>
</g>
<g>
	<g>
		<polyline class="st0" points="139,93 148.2,85 139,77.1 		"/>
		<polyline class="st0" points="152,93 161.2,85 152,77.1 		"/>
		<polyline class="st0" points="165,93 174.3,85 165,77.1 		"/>
	</g>
	<g>
		<polyline class="st0" points="396.7,258.9 405.2,251.7 396.7,244.5 		"/>
		<polyline class="st0" points="408.6,258.9 417,251.7 408.6,244.5 		"/>
		<polyline class="st0" points="420.4,258.9 428.8,251.7 420.4,244.5 		"/>
	</g>
</g>
<g>
	<polyline class="st1" points="239.3,263.2 235.8,257.5 231.7,262.8 	"/>
	<path class="st1" d="M211.5,283c13.4,0,24.2-10.8,24.2-24.2"/>
</g>
<g>
	<polyline class="st1" points="411.7,105.7 405.9,109.1 411.2,113.3 	"/>
	<path class="st1" d="M431.5,133.5c0-13.4-10.8-24.2-24.2-24.2"/>
</g>
<g>
	<polyline class="st1" points="12.9,190.2 16.3,184.5 20.5,189.8 	"/>
	<path class="st1" d="M40.7,210c-13.4,0-24.2-10.8-24.2-24.2"/>
</g>
<g>
	<g>
		
			<ellipse transform="matrix(0.9732 -0.2298 0.2298 0.9732 -34.9545 9.9731)" class="st2" cx="25.4" cy="155.1" rx="14.9" ry="14.9"/>
	</g>
	<polyline class="st3" points="17.3,155.9 22.6,161.4 33.6,149.7 	"/>
</g>
<g>
	<g>
		<g>
			<g>
				<g>
					<path class="st4" d="M28.3,279.8c-0.8,0-1.5-0.7-1.5-1.5v-40.1c0-0.8,0.7-1.5,1.5-1.5h81.7c0.8,0,1.5,0.7,1.5,1.5v40.1
						c0,0.8-0.7,1.5-1.5,1.5H28.3z"/>
					<path class="st2" d="M110.1,238.2v40.1H28.3v-40.1H110.1 M110.1,235.2H28.3c-1.7,0-3,1.3-3,3v40.1c0,1.7,1.3,3,3,3h81.7
						c1.7,0,3-1.3,3-3v-40.1C113.1,236.6,111.7,235.2,110.1,235.2L110.1,235.2z"/>
				</g>
				<path class="st5" d="M106.8,268.1v-19.7c-3.8,0-6.9-3.1-6.9-6.9H38.5c0,3.8-3.1,6.9-6.9,6.9v19.7c3.8,0,6.9,3.1,6.9,6.9h61.4
					C99.9,271.3,103,268.1,106.8,268.1z"/>
			</g>
			<circle class="st5" cx="69.2" cy="258.3" r="13.1"/>
		</g>
		<g>
			<g>
				<g>
					<path class="st4" d="M41.5,266.2c-0.8,0-1.5-0.7-1.5-1.5v-40.1c0-0.8,0.7-1.5,1.5-1.5h81.7c0.8,0,1.5,0.7,1.5,1.5v40.1
						c0,0.8-0.7,1.5-1.5,1.5H41.5z"/>
					<path class="st2" d="M123.2,224.6v40.1H41.5v-40.1H123.2 M123.2,221.6H41.5c-1.7,0-3,1.3-3,3v40.1c0,1.7,1.3,3,3,3h81.7
						c1.7,0,3-1.3,3-3v-40.1C126.2,222.9,124.9,221.6,123.2,221.6L123.2,221.6z"/>
				</g>
				<path class="st5" d="M120,254.5v-19.7c-3.8,0-6.9-3.1-6.9-6.9H51.6c0,3.8-3.1,6.9-6.9,6.9v19.7c3.8,0,6.9,3.1,6.9,6.9H113
					C113,257.6,116.1,254.5,120,254.5z"/>
			</g>
			<circle class="st5" cx="82.3" cy="244.6" r="13.1"/>
		</g>
	</g>
	<g>
		<g>
			<path class="st2" d="M83.5,288.2"/>
		</g>
	</g>
</g>
<g>
	<g>
		<path class="st0" d="M167.5,238.9c2.5-2.5,6-4.1,9.8-4.1c3.8,0,7.3,1.6,9.8,4.1"/>
		<path class="st0" d="M192.5,233.5c-3.9-3.9-9.2-6.3-15.2-6.3c-5.9,0-11.3,2.4-15.2,6.3"/>
		<path class="st0" d="M172.9,244.2c1.1-1.1,2.7-1.9,4.5-1.9c1.8,0,3.3,0.7,4.5,1.9"/>
		<path class="st0" d="M187.2,238.9c-2.5-2.5-6-4.1-9.8-4.1c-3.8,0-7.3,1.6-9.8,4.1"/>
		<path class="st0" d="M181.8,244.2c-1.1-1.1-2.7-1.9-4.5-1.9c-1.8,0-3.3,0.7-4.5,1.9"/>
	</g>
	<g>
		<g>
			<g>
				<g>
					<path class="st4" d="M159.7,340.3c-4.4,0-7.9-3.6-7.9-7.9v-68c0-4.4,3.6-7.9,7.9-7.9H195c4.4,0,7.9,3.6,7.9,7.9v68
						c0,4.4-3.6,7.9-7.9,7.9H159.7z"/>
					<path class="st2" d="M195,257.9c3.6,0,6.4,2.9,6.4,6.4v68c0,3.6-2.9,6.4-6.4,6.4h-35.2c-3.6,0-6.4-2.9-6.4-6.4v-68
						c0-3.6,2.9-6.4,6.4-6.4H195 M195,254.9h-35.2c-5.2,0-9.4,4.2-9.4,9.4v68c0,5.2,4.2,9.4,9.4,9.4H195c5.2,0,9.4-4.2,9.4-9.4v-68
						C204.4,259.1,200.2,254.9,195,254.9L195,254.9z"/>
				</g>
				<g>
					<path class="st5" d="M157,323.3v-59.1c0-1.4,1.2-2.6,2.6-2.6h35.5c1.4,0,2.6,1.2,2.6,2.6v59.1c0,1.4-1.2,2.6-2.6,2.6h-35.5
						C158.1,325.9,157,324.8,157,323.3z"/>
					<circle class="st5" cx="176.4" cy="332.2" r="3.2"/>
				</g>
			</g>
		</g>
		<g>
			<line class="st5" x1="163.8" y1="296.3" x2="186.4" y2="273.6"/>
			<line class="st5" x1="163.8" y1="304.6" x2="181.5" y2="286.9"/>
		</g>
	</g>
</g>
<g>
	<g>
		<g>
			<path class="st6" d="M379.2,323.6H272.7v-68.1c0-1.7,1.4-3.1,3.1-3.1h100.4c1.7,0,3.1,1.4,3.1,3.1V323.6z"/>
			<rect x="280.9" y="259.8" class="st5" width="90.2" height="56.6"/>
			<rect x="265.5" y="323.6" class="st6" width="121.3" height="5.2"/>
		</g>
		<g>
			<g>
				<line class="st5" x1="286.9" y1="284.4" x2="303.4" y2="268"/>
				<line class="st5" x1="284.8" y1="294.9" x2="314.1" y2="265.6"/>
			</g>
			<g>
				<rect x="307.5" y="279.9" class="st1" width="36.3" height="19.3"/>
			</g>
		</g>
	</g>
	<path class="st6" d="M385.2,287.4l-20.8-7.6l7.6,20.7l5-5l10.9,10.9c0.9,0.9,2.3,0.9,3.1,0s0.9-2.3,0-3.1l-10.9-10.9L385.2,287.4z"
		/>
</g>
<g>
	<g>
		<rect x="30.1" y="41.3" class="st6" width="90.7" height="49.3"/>
		<g>
			<rect x="37.8" y="56.6" class="st5" width="53.8" height="5.5"/>
			<rect x="94.7" y="56.6" class="st5" width="18.3" height="5.5"/>
			<rect x="37.8" y="67" class="st5" width="75.3" height="16.4"/>
			<g>
				<line class="st5" x1="37.8" y1="49.3" x2="93.4" y2="49.3"/>
				<line class="st5" x1="99" y1="49.3" x2="113.1" y2="49.3"/>
			</g>
		</g>
	</g>
	<g>
		<g>
			<path class="st6" d="M147.1,12.8L88,71.9L80.1,64l59.1-59.1c2.2-2.2,5.7-2.2,7.9,0h0C149.2,7.1,149.2,10.6,147.1,12.8z"/>
			<polygon class="st6" points="80.1,64 77.7,74.2 88,71.9 			"/>
			<line class="st1" x1="124.7" y1="19.4" x2="132.5" y2="27.1"/>
		</g>
		<path class="st0" d="M145.7,14.7L145.7,14.7c2.3,2.3,2.3,5.9,0,8.2l-15.2,15.2"/>
	</g>
</g>
<g>
	
		<ellipse transform="matrix(0.3792 -0.9253 0.9253 0.3792 102.2594 496.2291)" class="st2" cx="420.9" cy="171.9" rx="15.2" ry="15.2"/>
	<g>
		<circle class="st3" cx="420.9" cy="171.9" r="12.7"/>
	</g>
</g>
<g>
	<circle class="st2" cx="228.9" cy="232.5" r="15.2"/>
	<g>
		<circle class="st3" cx="228.9" cy="232.5" r="12.7"/>
	</g>
</g>
<g>
	<circle class="st2" cx="174.8" cy="44.6" r="15.2"/>
	<g>
		<circle class="st3" cx="174.8" cy="44.6" r="12.7"/>
	</g>
</g>
<g>
	<path class="st4" d="M227.4,235.4l-1.7-3.4h-1.2v3.4h-1.7v-8.5h3.3c1.7,0,2.8,1.2,2.8,2.6c0,1.2-0.7,1.9-1.6,2.2l1.9,3.7H227.4z
		 M226.1,228.3h-1.6v2.3h1.6c0.7,0,1.2-0.5,1.2-1.1C227.3,228.8,226.8,228.3,226.1,228.3z"/>
	<path class="st4" d="M235.2,234.9c-0.3,0.3-0.9,0.6-1.5,0.6c-0.6,0-1.1-0.2-1.5-0.6v2.8h-1.6v-8.5h1.5v0.6c0.4-0.5,0.9-0.7,1.6-0.7
		c0.6,0,1.2,0.2,1.5,0.6c0.6,0.6,0.6,1.7,0.6,2.6S235.8,234.3,235.2,234.9z M233.2,230.5c-0.9,0-1.1,0.8-1.1,1.8s0.1,1.8,1.1,1.8
		s1.1-0.8,1.1-1.8S234.1,230.5,233.2,230.5z"/>
</g>
<g>
	<path class="st4" d="M419.3,175.3l-1.7-3.4h-1.2v3.4h-1.7v-8.5h3.3c1.7,0,2.8,1.2,2.8,2.6c0,1.2-0.7,1.9-1.6,2.2l1.9,3.7H419.3z
		 M418,168.3h-1.6v2.3h1.6c0.7,0,1.2-0.5,1.2-1.1C419.2,168.8,418.8,168.3,418,168.3z"/>
	<path class="st4" d="M427.1,174.9c-0.3,0.3-0.9,0.6-1.5,0.6c-0.6,0-1.1-0.2-1.5-0.6v2.8h-1.6v-8.5h1.5v0.6c0.4-0.5,0.9-0.7,1.6-0.7
		c0.6,0,1.2,0.2,1.5,0.6c0.6,0.6,0.6,1.7,0.6,2.6S427.7,174.2,427.1,174.9z M425.1,170.4c-0.9,0-1.1,0.8-1.1,1.8s0.1,1.8,1.1,1.8
		s1.1-0.8,1.1-1.8S426.1,170.4,425.1,170.4z"/>
</g>
<g>
	<path class="st4" d="M172.3,48.2l-1.7-3.4h-1.2v3.4h-1.7v-8.5h3.3c1.7,0,2.8,1.2,2.8,2.6c0,1.2-0.7,1.9-1.6,2.2l1.9,3.7H172.3z
		 M171,41.2h-1.6v2.3h1.6c0.7,0,1.2-0.5,1.2-1.1C172.2,41.7,171.8,41.2,171,41.2z"/>
	<path class="st4" d="M180.1,47.7c-0.3,0.3-0.9,0.6-1.5,0.6c-0.6,0-1.1-0.2-1.5-0.6v2.8h-1.6V42h1.5v0.6c0.4-0.5,0.9-0.7,1.6-0.7
		c0.6,0,1.2,0.2,1.5,0.6c0.6,0.6,0.6,1.7,0.6,2.6S180.7,47.1,180.1,47.7z M178.1,43.3c-0.9,0-1.1,0.8-1.1,1.8s0.1,1.8,1.1,1.8
		s1.1-0.8,1.1-1.8S179.1,43.3,178.1,43.3z"/>
</g>
<g>
	<rect x="260.8" y="1.2" class="st2" width="122.6" height="20.2"/>
	<rect x="283.2" y="1.2" class="st7" width="10.6" height="20.2"/>
	<rect x="305.6" y="1.2" class="st7" width="10.6" height="20.2"/>
	<rect x="328" y="1.2" class="st7" width="10.6" height="20.2"/>
	<rect x="350.4" y="1.2" class="st7" width="10.6" height="20.2"/>
	<rect x="372.8" y="1.2" class="st7" width="10.6" height="20.2"/>
	<rect x="260.8" y="-1.2" class="st8" width="122.6" height="2.3"/>
	<g>
		<rect x="318.8" y="42.5" class="st2" width="5.5" height="6"/>
		<path class="st2" d="M327.1,40.2c0,1.9-1.6,3.5-3.5,3.5h-4c-1.9,0-3.5-1.6-3.5-3.5v-8.5c0-1.9,1.6-3.5,3.5-3.5h4
			c1.9,0,3.5,1.6,3.5,3.5V40.2z"/>
		<path class="st2" d="M316.4,36.4c0,0.5-0.4,0.9-0.9,0.9c-0.5,0-0.9-0.4-0.9-0.9c0-0.5,0.4-0.9,0.9-0.9
			C316,35.5,316.4,35.9,316.4,36.4z"/>
		<path class="st2" d="M328.7,36.4c0,0.5-0.4,0.9-0.9,0.9c-0.5,0-0.9-0.4-0.9-0.9c0-0.5,0.4-0.9,0.9-0.9
			C328.2,35.5,328.7,35.9,328.7,36.4z"/>
		<rect x="313.1" y="46" class="st8" width="17.2" height="23.4"/>
		<path class="st2" d="M347.9,30l-0.5,2.2l2.3,0.5l0.5-2.2c0.1-0.6-0.2-1.3-0.9-1.4C348.6,29,348,29.4,347.9,30z"/>
		<path class="st8" d="M330.6,50c-1.1-0.1-2-1-2-2.1c0-0.9,0.6-1.6,1.5-1.9c0,0,0.4-0.1,0.5-0.1c2.6-0.3,14.6-2.5,16.7-14.3
			c1.2,0.2,1.3,0.2,2.4,0.6C347.5,49.6,330.7,50,330.6,50L330.6,50C330.7,50,330.7,50,330.6,50z"/>
		<path class="st2" d="M296,30.1l0.5,2.2l-2.3,0.5l-0.5-2.2c-0.1-0.6,0.2-1.3,0.9-1.4C295.2,29.1,295.8,29.5,296,30.1z"/>
		<path class="st8" d="M313.2,50.1c1.1-0.1,2-1,2-2.1c0-0.9-0.6-1.6-1.5-1.9c0,0-0.4-0.1-0.5-0.1c-2.6-0.3-14.6-2.5-16.7-14.3
			c-1.2,0.2-1.3,0.2-2.4,0.6C296.3,49.7,313.1,50.1,313.2,50.1L313.2,50.1C313.1,50.1,313.2,50.1,313.2,50.1z"/>
		<path class="st7" d="M323.9,26.9c-2.5-0.3-5.4,1.2-7.1-0.7c-1.2,1.8-0.1,3.8,1.8,4.7c1.9,0.8,7.9-1,8.5,1.8
			C327.3,29.8,326.3,27.2,323.9,26.9z"/>
		<path class="st7" d="M317.7,31.1c-0.5,1-1.4,1.5-2,1.2c-0.7-0.3-0.8-1.4-0.4-2.3c0.5-1,1.4-1.5,2-1.2
			C318,29.1,318.2,30.2,317.7,31.1z"/>
		<rect x="315.7" y="50.7" class="st2" width="12" height="15.1"/>
		<rect x="315.7" y="46" class="st2" width="0.3" height="5"/>
		<rect x="327.5" y="46" class="st2" width="0.3" height="5"/>
	</g>
	<rect x="260.8" y="1.2" class="st7" width="10.6" height="20.2"/>
	<rect x="260.8" y="18.8" class="st8" width="122.6" height="6.8"/>
	<rect x="260.8" y="25.6" class="st2" width="3.3" height="80.7"/>
	<rect x="380.1" y="25.6" class="st2" width="3.3" height="80.7"/>
	<rect x="264.1" y="68.3" class="st7" width="116" height="38"/>
	<rect x="264.1" y="64.7" class="st7" width="116" height="3.7"/>
	<rect x="297.5" y="75.7" class="st2" width="48.8" height="22.7"/>
	<path class="st2" d="M287.8,64.7c3.4,0,6.1-2.7,6.1-6.1h-12.2C281.7,61.9,284.5,64.7,287.8,64.7z"/>
	<g>
		<path class="st2" d="M357.4,63.3c0,0.8-0.6,1.4-1.4,1.4h-9.6c-0.8,0-1.4-0.6-1.4-1.4v-5.1c0-0.8,0.6-1.4,1.4-1.4h9.6
			c0.8,0,1.4,0.6,1.4,1.4V63.3z"/>
		<rect x="346.4" y="55.4" class="st2" width="9.8" height="1.4"/>
	</g>
	<g>
		<path class="st2" d="M368.9,63.3c0,0.8-0.6,1.4-1.4,1.4h-2c-0.8,0-1.4-0.6-1.4-1.4v-5.1c0-0.8,0.6-1.4,1.4-1.4h2
			c0.8,0,1.4,0.6,1.4,1.4V63.3z"/>
		<path class="st2" d="M367.6,58.1c0,0.6-0.5,1-1,1l0,0c-0.6,0-1-0.5-1-1v-2.6c0-0.6,0.5-1,1-1l0,0c0.6,0,1,0.5,1,1V58.1z"/>
	</g>
</g>
</svg>
