<?xml version="1.0" encoding="utf-8"?>
<!-- Generator: Adobe Illustrator 23.0.0, SVG Export Plug-In . SVG Version: 6.00 Build 0)  -->
<svg version="1.1" id="OBJECTS" xmlns="http://www.w3.org/2000/svg" xmlns:xlink="http://www.w3.org/1999/xlink" x="0px" y="0px"
	 viewBox="0 0 492.9 179.3" style="enable-background:new 0 0 492.9 179.3;" xml:space="preserve">
<style type="text/css">
	.st0{fill:none;stroke:#FFFFFF;stroke-width:2;stroke-miterlimit:10;}
	.st1{fill:#FFD400;stroke:#FFFFFF;stroke-width:2;stroke-miterlimit:10;}
	.st2{fill:#FFFFFF;}
	.st3{fill:#FFD400;stroke:#FFFFFF;stroke-width:2;stroke-linecap:round;stroke-linejoin:round;stroke-miterlimit:10;}
	.st4{fill:none;stroke:#FFFFFF;stroke-width:2;stroke-linecap:round;stroke-linejoin:round;stroke-miterlimit:10;}
	.st5{fill:none;stroke:#FFFFFF;stroke-width:2;stroke-miterlimit:10;stroke-dasharray:4.8953,3.9163;}
	.st6{fill:none;stroke:#FFFFFF;stroke-width:2;stroke-linejoin:round;stroke-miterlimit:10;}
	.st7{fill:none;stroke:#FFFFFF;stroke-width:2;stroke-miterlimit:10;stroke-dasharray:4.5147,1.8059;}
	.st8{fill:none;stroke:#FFFFFF;stroke-width:2;stroke-miterlimit:10;stroke-dasharray:5.0585,2.0234;}
</style>
<g>
	<g id="XMLID_1185_">
		<path id="XMLID_1196_" class="st0" d="M147.3,154.6H91.2c-2.5,0-4.6-2-4.6-4.6V33.8c0-2.5,2-4.6,4.6-4.6h56.1c2.5,0,4.6,2,4.6,4.6
			V150C151.9,152.6,149.8,154.6,147.3,154.6z"/>
		<rect id="XMLID_1195_" x="91.3" y="39.6" class="st0" width="55.9" height="100.3"/>
		<line id="XMLID_1194_" class="st0" x1="85.6" y1="51.6" x2="85.6" y2="62.1"/>
		<line id="XMLID_1193_" class="st0" x1="132.2" y1="34.9" x2="106.3" y2="34.9"/>
		<line id="XMLID_1192_" class="st0" x1="123.8" y1="45.9" x2="97.9" y2="45.9"/>
		<line id="XMLID_1191_" class="st0" x1="135" y1="91.9" x2="97.9" y2="91.9"/>
		<line id="XMLID_1190_" class="st0" x1="128.5" y1="98.1" x2="97.9" y2="98.1"/>
		<line id="XMLID_1189_" class="st0" x1="121.7" y1="104.4" x2="97.9" y2="104.4"/>
		<line id="XMLID_1188_" class="st0" x1="85.6" y1="64.6" x2="85.6" y2="75.1"/>
		<rect id="XMLID_1187_" x="97.9" y="51.6" class="st1" width="42.8" height="35"/>
		<rect id="XMLID_1186_" x="97.9" y="113.9" class="st1" width="42.8" height="10.4"/>
	</g>
	<path id="XMLID_1184_" class="st2" d="M139.4,138c-2.4-0.2-4.4,1.6-4.4,4v-3.7c0-2.1-1.5-4-3.6-4.2c-2.4-0.2-4.4,1.6-4.4,4v-2
		c0-2.1-1.5-4-3.6-4.2c-2.4-0.2-4.4,1.6-4.4,4v-13.4c0-2.1-1.5-4-3.6-4.2c-2.4-0.2-4.4,1.6-4.4,4v27.3l-3.4-3.4
		c-1.5-1.5-4.1-1.8-5.7-0.3c-1.7,1.5-1.8,4.2-0.2,5.8l10.7,10.2c1,1,1.6,2.3,1.6,3.7l0,6.6h26v-6.5c0-0.8,0.1-1.5,0.3-2.2l1.8-6.9
		c0.6-2.1,0.9-4.4,0.9-6.6v-7.8C143,140,141.4,138.2,139.4,138z"/>
	<g id="XMLID_1171_">
		<rect id="XMLID_1183_" x="32.5" y="108" class="st0" width="8.6" height="6.3"/>
		<path id="XMLID_1182_" class="st3" d="M36.8,154.6L36.8,154.6c-2.4,0-4.3-1.9-4.3-4.3v-31.8h8.6v31.8
			C41.1,152.7,39.2,154.6,36.8,154.6z"/>
		<rect id="XMLID_1181_" x="30.3" y="114.3" class="st0" width="13" height="4.2"/>
		<circle id="XMLID_1180_" class="st0" cx="36.8" cy="78.5" r="29.8"/>
		<circle id="XMLID_1176_" class="st0" cx="36.8" cy="78.5" r="24.8"/>
		<g id="XMLID_1172_">
			<line id="XMLID_1175_" class="st0" x1="50.9" y1="64.4" x2="22.6" y2="92.6"/>
			<line id="XMLID_1174_" class="st0" x1="50.1" y1="71.3" x2="29.6" y2="91.9"/>
			<line id="XMLID_1173_" class="st0" x1="43.9" y1="65.2" x2="23.4" y2="85.7"/>
		</g>
	</g>
	<g id="XMLID_1158_">
		<path id="XMLID_1170_" class="st3" d="M163.5,70.8c-2.6,0-4.7,2.2-4.4,4.9c0.2,2.3,2.3,4,4.6,4H210v-6.3c0-1.5-1.2-2.6-2.6-2.6
			H163.5z"/>
		<g id="XMLID_1166_">
			
				<rect id="XMLID_1169_" x="156.6" y="61.8" transform="matrix(6.123234e-17 -1 1 6.123234e-17 104.8862 251.0801)" class="st1" width="42.7" height="22.7"/>
			<path id="XMLID_1168_" class="st1" d="M172.8,54.5h10.5c0,1.7,1.4,3.2,3.1,3.2v30.9c-1.7,0-3.1,1.4-3.1,3.2h-10.5
				c0-1.8-1.4-3.2-3.2-3.2V57.6C171.3,57.6,172.8,56.2,172.8,54.5z"/>
			<path id="XMLID_1167_" class="st0" d="M178,68.5c2.6,0,4.6,2.1,4.6,4.6c0,2.6-2.1,4.6-4.6,4.6c-2.6,0-4.6-2.1-4.6-4.6
				C173.3,70.5,175.4,68.5,178,68.5z"/>
		</g>
		<g id="XMLID_1162_">
			
				<rect id="XMLID_1165_" x="171.7" y="64.6" transform="matrix(0.5 -0.866 0.866 0.5 30.7676 205.1125)" class="st1" width="42.7" height="22.7"/>
			<path id="XMLID_1164_" class="st1" d="M197.8,57.2l9.1,5.2c-0.9,1.5-0.4,3.4,1.1,4.3l-15.5,26.8c-1.5-0.8-3.4-0.3-4.3,1.2
				l-9.1-5.2c0.9-1.5,0.3-3.5-1.2-4.3l15.5-26.8C195,59.2,196.9,58.7,197.8,57.2z"/>
			<path id="XMLID_1163_" class="st0" d="M195.3,71.9c2.2,1.3,3,4.1,1.7,6.3c-1.3,2.2-4.1,3-6.3,1.7c-2.2-1.3-3-4.1-1.7-6.3
				C190.3,71.4,193.1,70.6,195.3,71.9z"/>
		</g>
		<path id="XMLID_1161_" class="st3" d="M210.7,112.1h-49c-1.5,0-2.6-1.2-2.6-2.6V75.2c0,2.5,2,4.4,4.4,4.4h47.2
			c1.5,0,2.6,1.2,2.6,2.6v27.2C213.3,111,212.1,112.1,210.7,112.1z"/>
		<path id="XMLID_1160_" class="st3" d="M215.2,101.9h-10.1c-3.3,0-6-2.7-6-6l0,0c0-3.3,2.7-6,6-6h10.1V101.9z"/>
		<path id="XMLID_1159_" class="st0" d="M208.6,95.9c0,2-1.7,3.7-3.7,3.7c-2,0-3.7-1.7-3.7-3.7c0-2,1.7-3.7,3.7-3.7
			C207,92.2,208.6,93.8,208.6,95.9z"/>
	</g>
	<g id="XMLID_1153_">
		<path id="XMLID_1157_" class="st0" d="M220.1,154.6h-58.5c-1.1,0-2-0.9-2-2v-34c0-1.1,0.9-2,2-2h58.5c1.1,0,2,0.9,2,2v34
			C222.1,153.7,221.2,154.6,220.1,154.6z"/>
		<rect id="XMLID_1156_" x="159.6" y="125.3" class="st1" width="62.5" height="5.6"/>
		<line id="XMLID_1155_" class="st0" x1="162.9" y1="145.4" x2="182.4" y2="145.4"/>
		<line id="XMLID_1154_" class="st0" x1="187.1" y1="145.4" x2="206.6" y2="145.4"/>
	</g>
	<g id="XMLID_1149_">
		<rect id="XMLID_1152_" x="235.7" y="95.2" class="st3" width="59.3" height="59.3"/>
		<polygon id="XMLID_1151_" class="st4" points="274.5,109.7 270.3,106.2 265.3,114.2 260.5,107.1 256.2,109.7 256.2,95.2 
			274.5,95.2 		"/>
		<polygon id="XMLID_1150_" class="st4" points="256.2,140.1 260.4,143.6 265.3,135.6 270.2,142.7 274.5,140.1 274.5,154.6 
			256.2,154.6 		"/>
	</g>
	<g id="XMLID_1141_">
		<g id="XMLID_1145_">
			<path id="XMLID_1148_" class="st3" d="M233.8,45.2h-13.1c-2.3,0-4.1-1.8-4.1-4.1V28c0-2.3,1.8-4.1,4.1-4.1h13.1
				c2.3,0,4.1,1.8,4.1,4.1v13.1C237.9,43.4,236.1,45.2,233.8,45.2z"/>
			<path id="XMLID_1147_" class="st0" d="M233.7,23.9h-12.9v-6.1c0-3.6,2.9-6.4,6.4-6.4l0,0c3.6,0,6.4,2.9,6.4,6.4V23.9z"/>
			<path id="XMLID_1146_" class="st4" d="M230,40.1l-1.2-6.4c0.6-0.5,1.1-1.2,1.1-2.1c0-1.4-1.2-2.6-2.6-2.6c-1.4,0-2.6,1.2-2.6,2.6
				c0,0.9,0.4,1.6,1.1,2.1l-1.2,6.4H230z"/>
		</g>
		<g id="XMLID_1142_">
			
				<ellipse transform="matrix(0.1602 -0.9871 0.9871 0.1602 161.5539 249.252)" class="st5" cx="227.3" cy="29.7" rx="23.8" ry="23.8"/>
		</g>
	</g>
	<g id="XMLID_1139_">
		<g>
			<polygon id="XMLID_25_" class="st0" points="264,85.3 241.4,68.6 248,59.8 262.7,70.6 288.4,43.4 296.4,50.9 			"/>
		</g>
	</g>
	<g id="XMLID_1130_">
		<circle id="XMLID_1138_" class="st0" cx="64.4" cy="138.8" r="15.9"/>
		<g id="XMLID_1131_">
			<g>
				<path id="XMLID_63_" class="st2" d="M63.2,135.7c0,3-1.9,4.5-4,4.5c-2.2,0-3.9-1.6-3.9-4.3c0-2.5,1.6-4.5,4-4.5
					C61.8,131.4,63.2,133.2,63.2,135.7z M57.8,135.8c0,1.5,0.5,2.6,1.5,2.6c0.9,0,1.4-1,1.4-2.6c0-1.4-0.4-2.6-1.4-2.6
					C58.3,133.2,57.8,134.4,57.8,135.8z M59.4,146.2l8.2-14.8h1.8l-8.2,14.8H59.4z M73.5,141.6c0,3-1.9,4.5-4,4.5
					c-2.2,0-3.9-1.6-3.9-4.3c0-2.5,1.6-4.5,4-4.5C72.1,137.3,73.5,139.2,73.5,141.6z M68.1,141.7c0,1.5,0.5,2.6,1.4,2.6
					c0.9,0,1.4-1,1.4-2.6c0-1.4-0.4-2.6-1.4-2.6C68.6,139.2,68.1,140.3,68.1,141.7z"/>
			</g>
		</g>
	</g>
	<path id="XMLID_1129_" class="st2" d="M379.4,83.1l5.1-2.8V58.6l-4.4-2.8c-1.3-0.8-2.2-2.1-2.4-3.6l-1.5-8.1
		c-0.3-1.9-2-3.2-3.9-3.2l0,0c-2.2,0-3.9,1.8-3.9,3.9V55h-5.7v29H376C377.2,83.9,378.3,83.6,379.4,83.1z"/>
	<path id="XMLID_1128_" class="st2" d="M363.5,62.2h-8.2c-2,0-3.6-1.6-3.6-3.6l0,0c0-2,1.6-3.6,3.6-3.6h8.2c2,0,3.6,1.6,3.6,3.6l0,0
		C367.1,60.6,365.5,62.2,363.5,62.2z"/>
	<path id="XMLID_1127_" class="st2" d="M361.8,69.4h-8.2c-2,0-3.6-1.6-3.6-3.6l0,0c0-2,1.6-3.6,3.6-3.6h8.2c2,0,3.6,1.6,3.6,3.6l0,0
		C365.4,67.8,363.8,69.4,361.8,69.4z"/>
	<path id="XMLID_1126_" class="st2" d="M363.5,76.7h-8.2c-2,0-3.6-1.6-3.6-3.6v0c0-2,1.6-3.6,3.6-3.6h8.2c2,0,3.6,1.6,3.6,3.6v0
		C367.1,75.1,365.5,76.7,363.5,76.7z"/>
	<path id="XMLID_1125_" class="st2" d="M365.6,83.9h-8.2c-2,0-3.6-1.6-3.6-3.6l0,0c0-2,1.6-3.6,3.6-3.6h8.2c2,0,3.6,1.6,3.6,3.6l0,0
		C369.2,82.3,367.6,83.9,365.6,83.9z"/>
	<path id="XMLID_1124_" class="st4" d="M371,67.4c2.1,1.3,4.6,2.1,7.1,2.1h6.4"/>
	<rect id="XMLID_1123_" x="384.5" y="58.6" class="st2" width="5.2" height="21.3"/>
	<rect id="XMLID_1119_" x="389.6" y="55.7" class="st1" width="7.3" height="27.1"/>
	<g id="XMLID_1113_">
		<path id="XMLID_1117_" class="st6" d="M190.6,12.2h-29.8c-2.2,0-4,1.8-4,4v15.9c0,2.2,1.8,4,4,4h2.4c0,2.3-0.9,4.4-2.4,6
			c-0.7,0.7-0.2,2,0.8,2.1c6.2,0.5,10.3-3.8,10.3-8.1h18.6c2.2,0,4-1.8,4-4V16.1C194.6,14,192.8,12.2,190.6,12.2z"/>
		<line id="XMLID_1116_" class="st0" x1="162.1" y1="19" x2="189.4" y2="19"/>
		<line id="XMLID_1115_" class="st0" x1="162.1" y1="24.4" x2="189.4" y2="24.4"/>
		<line id="XMLID_1114_" class="st0" x1="162.1" y1="29.9" x2="189.4" y2="29.9"/>
	</g>
	<path id="XMLID_1112_" class="st0" d="M306.1,34.6l-2.3,2.6c-1.2,1.4-3.3,1.4-4.5,0l0,0c-1.2-1.4-3.3-1.4-4.5,0l0,0
		c-1.2,1.4-3.3,1.4-4.5,0l0,0c-1.2-1.4-3.3-1.4-4.5,0h0c-1.2,1.4-3.3,1.4-4.5,0l0,0c-1.2-1.4-3.3-1.4-4.5,0l0,0
		c-1.2,1.4-3.3,1.4-4.5,0l0,0c-1.2-1.4-3.3-1.4-4.5,0l0,0c-1.2,1.4-3.3,1.4-4.5,0l0,0c-1.2-1.4-3.3-1.4-4.5,0l-2.3,2.6"/>
	<path id="XMLID_1111_" class="st0" d="M64.8,24l-2.3,2.6c-1.2,1.4-3.3,1.4-4.5,0l0,0c-1.2-1.4-3.3-1.4-4.5,0l0,0
		c-1.2,1.4-3.3,1.4-4.5,0l0,0c-1.2-1.4-3.3-1.4-4.5,0l0,0c-1.2,1.4-3.3,1.4-4.5,0l0,0c-1.2-1.4-3.3-1.4-4.5,0h0
		c-1.2,1.4-3.3,1.4-4.5,0l0,0c-1.2-1.4-3.3-1.4-4.5,0l0,0c-1.2,1.4-3.3,1.4-4.5,0l0,0c-1.2-1.4-3.3-1.4-4.5,0l-2.3,2.6"/>
	<g id="XMLID_1108_">
		<line id="XMLID_1110_" class="st0" x1="389.2" y1="167.5" x2="395.2" y2="173.5"/>
		<line id="XMLID_1109_" class="st0" x1="395.2" y1="167.5" x2="389.2" y2="173.5"/>
	</g>
	<g id="XMLID_1105_">
		<line id="XMLID_1107_" class="st0" x1="330.4" y1="45.6" x2="336.4" y2="51.6"/>
		<line id="XMLID_1106_" class="st0" x1="336.4" y1="45.6" x2="330.4" y2="51.6"/>
	</g>
	<g id="XMLID_1102_">
		<line id="XMLID_1104_" class="st0" x1="477.5" y1="63.4" x2="483.5" y2="69.4"/>
		<line id="XMLID_1103_" class="st0" x1="483.5" y1="63.4" x2="477.5" y2="69.4"/>
	</g>
	<path id="XMLID_1101_" class="st0" d="M369.5,156.3c0,1.7-1.4,3.1-3.1,3.1s-3.1-1.4-3.1-3.1s1.4-3.1,3.1-3.1
		S369.5,154.6,369.5,156.3z"/>
	<circle id="XMLID_1100_" class="st0" cx="455.3" cy="75.5" r="3.1"/>
	
		<rect id="XMLID_1099_" x="419.2" y="151.6" transform="matrix(0.7071 0.7071 -0.7071 0.7071 232.831 -253.1946)" class="st0" width="5.7" height="5.7"/>
	
		<rect id="XMLID_1098_" x="462.9" y="46.4" transform="matrix(0.7071 0.7071 -0.7071 0.7071 171.2607 -314.9249)" class="st0" width="5.7" height="5.7"/>
	<g id="XMLID_1095_">
		<line id="XMLID_1097_" class="st0" x1="51.2" y1="113.4" x2="57.2" y2="119.4"/>
		<line id="XMLID_1096_" class="st0" x1="57.2" y1="113.4" x2="51.2" y2="119.4"/>
	</g>
	<g id="XMLID_1092_">
		<line id="XMLID_1094_" class="st0" x1="221.5" y1="105" x2="227.5" y2="111"/>
		<line id="XMLID_1093_" class="st0" x1="227.5" y1="105" x2="221.5" y2="111"/>
	</g>
	<g id="XMLID_1089_">
		<line id="XMLID_1091_" class="st0" x1="77.2" y1="163.3" x2="83.3" y2="169.3"/>
		<line id="XMLID_1090_" class="st0" x1="83.3" y1="163.3" x2="77.2" y2="169.3"/>
	</g>
	<path id="XMLID_1088_" class="st0" d="M66.3,43.3c0,1.7-1.4,3.1-3.1,3.1c-1.7,0-3.1-1.4-3.1-3.1s1.4-3.1,3.1-3.1
		C64.9,40.2,66.3,41.6,66.3,43.3z"/>
	<circle id="XMLID_1087_" class="st0" cx="76.6" cy="103.3" r="3.1"/>
	<path id="XMLID_1086_" class="st0" d="M232.2,158.5c0,1.7-1.4,3.1-3.1,3.1c-1.7,0-3.1-1.4-3.1-3.1c0-1.7,1.4-3.1,3.1-3.1
		C230.8,155.3,232.2,156.7,232.2,158.5z"/>
	
		<rect id="XMLID_1085_" x="72.1" y="72.3" transform="matrix(0.7071 0.7071 -0.7071 0.7071 75.0693 -31.0148)" class="st0" width="5.7" height="5.7"/>
	
		<rect id="XMLID_1084_" x="230.3" y="79.1" transform="matrix(0.7071 0.7071 -0.7071 0.7071 126.2157 -140.8228)" class="st0" width="5.7" height="5.7"/>
	
		<rect id="XMLID_1083_" x="9.2" y="125.4" transform="matrix(0.7071 0.7071 -0.7071 0.7071 94.1944 29.0558)" class="st0" width="5.7" height="5.7"/>
	<g id="XMLID_1073_">
		<path id="XMLID_1080_" class="st0" d="M330.4,70.4c0,1.7-1.4,3.1-3.1,3.1s-3.1-1.4-3.1-3.1s1.4-3.1,3.1-3.1S330.4,68.7,330.4,70.4
			z"/>
		<g id="XMLID_1074_">
			<g>
				<line class="st0" x1="292" y1="70.4" x2="294.5" y2="70.4"/>
				<line class="st7" x1="296.4" y1="70.4" x2="320.7" y2="70.4"/>
				<line class="st0" x1="321.6" y1="70.4" x2="324.1" y2="70.4"/>
			</g>
		</g>
	</g>
	<g id="XMLID_1063_">
		<circle id="XMLID_1070_" class="st0" cx="405.2" cy="34.6" r="3.1"/>
		<g id="XMLID_1064_">
			<g>
				<line class="st0" x1="370" y1="34.6" x2="372.5" y2="34.6"/>
				<line class="st7" x1="374.4" y1="34.6" x2="398.7" y2="34.6"/>
				<line class="st0" x1="399.6" y1="34.6" x2="402.1" y2="34.6"/>
			</g>
		</g>
	</g>
	<g id="XMLID_1057_">
		<g>
			<line class="st0" x1="151.9" y1="166.3" x2="154.4" y2="166.3"/>
			<line class="st8" x1="156.4" y1="166.3" x2="190.8" y2="166.3"/>
			<line class="st0" x1="191.8" y1="166.3" x2="194.3" y2="166.3"/>
		</g>
	</g>
	<g id="XMLID_1051_">
		<g>
			<line class="st0" x1="287.9" y1="166.3" x2="290.4" y2="166.3"/>
			<line class="st8" x1="292.5" y1="166.3" x2="326.8" y2="166.3"/>
			<line class="st0" x1="327.9" y1="166.3" x2="330.4" y2="166.3"/>
		</g>
	</g>
	<line id="XMLID_1050_" class="st0" x1="204.6" y1="163" x2="277.8" y2="163"/>
	<g id="XMLID_1028_">
		<g id="XMLID_1035_">
			<rect id="XMLID_1049_" x="327.6" y="135" class="st0" width="53.2" height="7.6"/>
			<circle id="XMLID_1048_" class="st0" cx="337.2" cy="146.6" r="9.7"/>
			<circle id="XMLID_1047_" class="st3" cx="337.2" cy="146.6" r="3.8"/>
			<path id="XMLID_1043_" class="st4" d="M380.8,142.6v-39.5h27.1l10.4,17.9c0.7,1.2,1.1,2.6,1.1,4v14.1c0,1.9-1.6,3.5-3.5,3.5
				H380.8z"/>
			<circle id="XMLID_1042_" class="st0" cx="394.2" cy="146.6" r="9.7"/>
			<circle id="XMLID_1041_" class="st3" cx="394.2" cy="146.6" r="3.8"/>
			<polygon id="XMLID_1040_" class="st0" points="385.4,107.1 405.6,107.1 414.6,122.9 385.4,122.9 			"/>
			<rect id="XMLID_1039_" x="327.6" y="90" class="st3" width="50.6" height="42"/>
			<g id="XMLID_1036_">
				<line id="XMLID_1038_" class="st0" x1="398.9" y1="108.3" x2="385.5" y2="121.7"/>
				<line id="XMLID_1037_" class="st0" x1="400.1" y1="113.2" x2="390.5" y2="122.9"/>
			</g>
		</g>
		<line id="XMLID_1034_" class="st0" x1="299.7" y1="95.2" x2="326.7" y2="95.2"/>
		<line id="XMLID_1033_" class="st0" x1="307.2" y1="103.8" x2="326.7" y2="103.8"/>
		<line id="XMLID_1032_" class="st0" x1="299.7" y1="112" x2="326.7" y2="112"/>
		<line id="XMLID_1031_" class="st0" x1="307.2" y1="120.6" x2="326.7" y2="120.6"/>
		<line id="XMLID_1030_" class="st0" x1="299.7" y1="128.9" x2="326.7" y2="128.9"/>
		<line id="XMLID_1029_" class="st0" x1="307.2" y1="137.4" x2="326.7" y2="137.4"/>
	</g>
	<g id="XMLID_1023_">
		<polygon id="XMLID_1027_" class="st0" points="435.5,96 427,92.6 418.5,96 418.5,76.5 435.5,76.5 		"/>
		<circle id="XMLID_1026_" class="st3" cx="427.8" cy="66.4" r="17.8"/>
		<circle id="XMLID_1025_" class="st0" cx="427.8" cy="66.4" r="13.1"/>
		<path id="XMLID_1024_" class="st3" d="M429.9,57.9l1.1,2.2c0.3,0.7,1,1.2,1.8,1.3l2.5,0.4c1.9,0.3,2.7,2.6,1.3,4l-1.8,1.7
			c-0.6,0.5-0.8,1.3-0.7,2.1l0.4,2.5c0.3,1.9-1.7,3.4-3.4,2.5l-2.2-1.2c-0.7-0.4-1.5-0.4-2.2,0l-2.2,1.2c-1.7,0.9-3.7-0.6-3.4-2.5
			l0.4-2.5c0.1-0.8-0.1-1.5-0.7-2.1l-1.8-1.7c-1.4-1.4-0.6-3.7,1.3-4l2.5-0.4c0.8-0.1,1.4-0.6,1.8-1.3l1.1-2.2
			C426.6,56.1,429.1,56.1,429.9,57.9z"/>
	</g>
	<g id="XMLID_919_">
		<rect id="XMLID_1022_" x="445.6" y="84.2" class="st0" width="40.3" height="70.4"/>
		<rect id="XMLID_1018_" x="451" y="90" class="st0" width="29.5" height="37.2"/>
		<circle id="XMLID_1017_" class="st3" cx="480.5" cy="127.2" r="3.9"/>
		<g id="XMLID_958_">
			<line id="XMLID_1016_" class="st0" x1="475.1" y1="99.3" x2="456.5" y2="117.9"/>
			<line id="XMLID_1015_" class="st0" x1="475.6" y1="104.9" x2="462.1" y2="118.4"/>
			<line id="XMLID_1014_" class="st0" x1="469.4" y1="98.8" x2="455.9" y2="112.2"/>
		</g>
		<line id="XMLID_957_" class="st0" x1="451" y1="133.8" x2="480.5" y2="133.8"/>
		<line id="XMLID_951_" class="st0" x1="451" y1="137.5" x2="480.5" y2="137.5"/>
		<line id="XMLID_939_" class="st0" x1="451" y1="141.3" x2="480.5" y2="141.3"/>
		<line id="XMLID_938_" class="st0" x1="451" y1="145" x2="480.5" y2="145"/>
		<line id="XMLID_935_" class="st0" x1="451" y1="148.8" x2="480.5" y2="148.8"/>
	</g>
	<g id="XMLID_777_">
		<rect id="XMLID_796_" x="435.5" y="124.2" class="st3" width="30.3" height="30.3"/>
		<polygon id="XMLID_795_" class="st4" points="455.3,131.6 453.2,129.9 450.6,133.9 448.2,130.3 445.9,131.6 445.9,124.2 
			455.3,124.2 		"/>
		<polygon id="XMLID_794_" class="st4" points="445.9,147.2 448.1,149 450.6,144.9 453.1,148.5 455.3,147.2 455.3,154.6 
			445.9,154.6 		"/>
	</g>
</g>
</svg>
