<?xml version="1.0" encoding="utf-8"?>
<!-- Generator: Adobe Illustrator 23.0.0, SVG Export Plug-In . SVG Version: 6.00 Build 0)  -->
<svg version="1.1" id="Layer_2" xmlns="http://www.w3.org/2000/svg" xmlns:xlink="http://www.w3.org/1999/xlink" x="0px" y="0px"
	 viewBox="0 0 80.7 30.6" style="enable-background:new 0 0 80.7 30.6;" xml:space="preserve">
<style type="text/css">
	.st0{fill:#FFFFFF;}
	.st1{fill:#FFD833;}
	.st2{fill:#FF9331;}
	.st3{fill:#FFA20D;}
	.st4{fill:#B7B7B7;}
	.st5{fill:#E08500;}
	.st6{fill:#1C1C1C;}
</style>
<g>
	<g>
		<rect x="24.1" y="1.7" class="st0" width="32.5" height="5.4"/>
		<rect x="30" y="1.7" class="st1" width="2.8" height="5.4"/>
		<rect x="36" y="1.7" class="st1" width="2.8" height="5.4"/>
		<rect x="41.9" y="1.7" class="st1" width="2.8" height="5.4"/>
		<rect x="47.8" y="1.7" class="st1" width="2.8" height="5.4"/>
		<rect x="53.8" y="1.7" class="st1" width="2.8" height="5.4"/>
		<rect x="24.1" y="1.1" class="st2" width="32.5" height="0.6"/>
		<g>
			<rect x="39.5" y="12.8" class="st0" width="1.5" height="1.6"/>
			<path class="st0" d="M41.7,12.2c0,0.5-0.4,0.9-0.9,0.9h-1.1c-0.5,0-0.9-0.4-0.9-0.9V9.9c0-0.5,0.4-0.9,0.9-0.9h1.1
				c0.5,0,0.9,0.4,0.9,0.9V12.2z"/>
			<path class="st0" d="M38.8,11.2c0,0.1-0.1,0.2-0.2,0.2c-0.1,0-0.2-0.1-0.2-0.2c0-0.1,0.1-0.2,0.2-0.2
				C38.7,10.9,38.8,11,38.8,11.2z"/>
			<path class="st0" d="M42.1,11.2c0,0.1-0.1,0.2-0.2,0.2c-0.1,0-0.2-0.1-0.2-0.2c0-0.1,0.1-0.2,0.2-0.2C42,10.9,42.1,11,42.1,11.2z
				"/>
			<rect x="37.9" y="13.7" class="st2" width="4.6" height="6.2"/>
			<path class="st0" d="M47.2,9.5L47,10l0.6,0.1l0.1-0.6c0-0.2-0.1-0.3-0.2-0.4C47.4,9.2,47.2,9.3,47.2,9.5z"/>
			<path class="st2" d="M42.6,14.8c-0.3,0-0.5-0.3-0.5-0.6c0-0.2,0.2-0.4,0.4-0.5c0,0,0.1,0,0.1,0c0.7-0.1,3.9-0.7,4.4-3.8
				c0.3,0,0.4,0.1,0.6,0.2C47.1,14.7,42.6,14.8,42.6,14.8L42.6,14.8C42.6,14.8,42.6,14.8,42.6,14.8z"/>
			<path class="st0" d="M33.4,9.5l0.1,0.6l-0.6,0.1l-0.1-0.6c0-0.2,0.1-0.3,0.2-0.4C33.2,9.2,33.4,9.3,33.4,9.5z"/>
			<path class="st2" d="M38,14.8c0.3,0,0.5-0.3,0.5-0.6c0-0.2-0.2-0.4-0.4-0.5c0,0-0.1,0-0.1,0c-0.7-0.1-3.9-0.7-4.4-3.8
				c-0.3,0-0.4,0.1-0.6,0.2C33.5,14.7,38,14.8,38,14.8L38,14.8C38,14.8,38,14.8,38,14.8z"/>
			<path class="st1" d="M40.8,8.7c-0.7-0.1-1.4,0.3-1.9-0.2c-0.3,0.5,0,1,0.5,1.2c0.5,0.2,2.1-0.3,2.2,0.5
				C41.7,9.4,41.5,8.7,40.8,8.7z"/>
			<path class="st1" d="M39.2,9.8c-0.1,0.3-0.4,0.4-0.5,0.3c-0.2-0.1-0.2-0.4-0.1-0.6c0.1-0.3,0.4-0.4,0.5-0.3
				C39.2,9.2,39.3,9.5,39.2,9.8z"/>
			<rect x="38.6" y="14.9" class="st0" width="3.2" height="4"/>
			<rect x="38.6" y="13.7" class="st0" width="0.1" height="1.3"/>
			<rect x="41.8" y="13.7" class="st0" width="0.1" height="1.3"/>
		</g>
		<rect x="24.1" y="1.7" class="st1" width="2.8" height="5.4"/>
		<rect x="24.1" y="6.4" class="st2" width="32.5" height="1.8"/>
		<rect x="24.1" y="8.2" class="st0" width="0.9" height="21.4"/>
		<rect x="55.7" y="8.2" class="st0" width="0.9" height="21.4"/>
		<rect x="25" y="19.5" class="st1" width="30.7" height="10.1"/>
		<rect x="25" y="18.5" class="st1" width="30.7" height="1"/>
		<rect x="33.8" y="21.4" class="st0" width="12.9" height="6"/>
		<path class="st0" d="M31.3,18.5c0.9,0,1.6-0.7,1.6-1.6h-3.2C29.6,17.8,30.4,18.5,31.3,18.5z"/>
		<g>
			<path class="st0" d="M49.7,18.2c0,0.2-0.2,0.4-0.4,0.4h-2.5c-0.2,0-0.4-0.2-0.4-0.4v-1.3c0-0.2,0.2-0.4,0.4-0.4h2.5
				c0.2,0,0.4,0.2,0.4,0.4V18.2z"/>
			<rect x="46.8" y="16.1" class="st0" width="2.6" height="0.4"/>
		</g>
		<g>
			<path class="st0" d="M52.7,18.2c0,0.2-0.2,0.4-0.4,0.4h-0.5c-0.2,0-0.4-0.2-0.4-0.4v-1.3c0-0.2,0.2-0.4,0.4-0.4h0.5
				c0.2,0,0.4,0.2,0.4,0.4V18.2z"/>
			<path class="st0" d="M52.4,16.8c0,0.1-0.1,0.3-0.3,0.3l0,0c-0.1,0-0.3-0.1-0.3-0.3v-0.7c0-0.1,0.1-0.3,0.3-0.3l0,0
				c0.1,0,0.3,0.1,0.3,0.3V16.8z"/>
		</g>
	</g>
	<g>
		<rect x="67.4" y="11.1" class="st1" width="0.1" height="9.6"/>
		<rect x="78.6" y="11.1" class="st1" width="0.1" height="9.6"/>
		<rect x="67.4" y="21" class="st3" width="11.3" height="5"/>
		<rect x="67.4" y="20.5" class="st4" width="11.3" height="0.5"/>
		<rect x="67.4" y="11.1" class="st1" width="11.3" height="0.5"/>
		<path class="st5" d="M78.7,26.5c0,0.2-0.2,0.4-0.4,0.4H67.9c-0.2,0-0.4-0.2-0.4-0.4l0,0c0-0.2,0.2-0.4,0.4-0.4h10.5
			C78.6,26,78.7,26.2,78.7,26.5L78.7,26.5z"/>
		<rect x="67.4" y="21" class="st1" width="11.3" height="0.2"/>
		<rect x="67.5" y="17.9" class="st3" width="11.2" height="0.2"/>
		<rect x="67.5" y="15.6" class="st3" width="11.2" height="0.2"/>
		<rect x="67.5" y="13.3" class="st3" width="11.2" height="0.2"/>
		<g>
			<rect x="69.2" y="23.9" class="st1" width="0.3" height="5.5"/>
			
				<rect x="69.2" y="23.9" transform="matrix(0.7049 -0.7093 0.7093 0.7049 1.6056 57.0527)" class="st1" width="0.3" height="5.5"/>
			
				<rect x="66.6" y="26.5" transform="matrix(0.7084 -0.7058 0.7058 0.7084 1.4549 56.7151)" class="st1" width="5.5" height="0.3"/>
			<rect x="66.6" y="26.5" class="st1" width="5.5" height="0.3"/>
			<path class="st0" d="M69.4,29.5c-1.6,0-2.9-1.3-2.9-2.9c0-1.6,1.3-2.9,2.9-2.9s2.9,1.3,2.9,2.9C72.3,28.2,71,29.5,69.4,29.5z
				 M69.4,24.1c-1.4,0-2.5,1.1-2.5,2.5c0,1.4,1.1,2.5,2.5,2.5c1.4,0,2.5-1.1,2.5-2.5C71.9,25.2,70.8,24.1,69.4,24.1z"/>
			<path class="st6" d="M70,26.6c0,0.3-0.3,0.6-0.6,0.6c-0.3,0-0.6-0.3-0.6-0.6c0-0.3,0.3-0.6,0.6-0.6C69.7,26,70,26.3,70,26.6z"/>
			<path class="st3" d="M69.7,26.6c0,0.2-0.1,0.3-0.3,0.3c-0.2,0-0.3-0.1-0.3-0.3c0-0.2,0.1-0.3,0.3-0.3
				C69.5,26.3,69.7,26.4,69.7,26.6z"/>
		</g>
		<g>
			<rect x="76.8" y="23.9" class="st1" width="0.3" height="5.5"/>
			<rect x="76.8" y="23.9" transform="matrix(0.7044 -0.7098 0.7098 0.7044 3.8589 62.46)" class="st1" width="0.3" height="5.5"/>
			<polygon class="st1" points="74.9,28.4 75.1,28.6 78.9,24.8 78.8,24.6 			"/>
			<rect x="74.2" y="26.5" class="st1" width="5.5" height="0.3"/>
			<path class="st0" d="M76.9,29.5c-1.6,0-2.9-1.3-2.9-2.9c0-1.6,1.3-2.9,2.9-2.9c1.6,0,2.9,1.3,2.9,2.9
				C79.9,28.2,78.5,29.5,76.9,29.5z M76.9,24.1c-1.4,0-2.5,1.1-2.5,2.5c0,1.4,1.1,2.5,2.5,2.5c1.4,0,2.5-1.1,2.5-2.5
				C79.4,25.2,78.3,24.1,76.9,24.1z"/>
			<path class="st6" d="M77.5,26.6c0,0.3-0.3,0.6-0.6,0.6c-0.3,0-0.6-0.3-0.6-0.6c0-0.3,0.3-0.6,0.6-0.6
				C77.3,26,77.5,26.3,77.5,26.6z"/>
			<path class="st3" d="M77.2,26.6c0,0.2-0.1,0.3-0.3,0.3c-0.2,0-0.3-0.1-0.3-0.3c0-0.2,0.1-0.3,0.3-0.3
				C77.1,26.3,77.2,26.4,77.2,26.6z"/>
		</g>
		<path class="st0" d="M69.7,17.9c0.6,0,1.2-0.5,1.2-1.2h-2.3C68.5,17.4,69.1,17.9,69.7,17.9z"/>
		<g>
			<path class="st0" d="M74.5,17.7c0,0.1-0.1,0.3-0.3,0.3h-1.8c-0.2,0-0.3-0.1-0.3-0.3v-1c0-0.2,0.1-0.3,0.3-0.3h1.8
				c0.1,0,0.3,0.1,0.3,0.3V17.7z"/>
			<rect x="72.4" y="16.1" class="st0" width="1.9" height="0.3"/>
		</g>
		<g>
			<path class="st0" d="M76.8,17.7c0,0.1-0.1,0.3-0.3,0.3h-0.4c-0.1,0-0.3-0.1-0.3-0.3v-1c0-0.2,0.1-0.3,0.3-0.3h0.4
				c0.2,0,0.3,0.1,0.3,0.3V17.7z"/>
			<path class="st0" d="M76.5,16.7c0,0.1-0.1,0.2-0.2,0.2l0,0c-0.1,0-0.2-0.1-0.2-0.2v-0.5c0-0.1,0.1-0.2,0.2-0.2l0,0
				c0.1,0,0.2,0.1,0.2,0.2V16.7z"/>
		</g>
	</g>
	<g>
		<rect x="1.8" y="11.1" class="st1" width="0.1" height="9.6"/>
		<rect x="13" y="11.1" class="st1" width="0.1" height="9.6"/>
		<rect x="1.8" y="21" class="st3" width="11.3" height="5"/>
		<rect x="1.8" y="20.5" class="st4" width="11.3" height="0.5"/>
		<rect x="1.8" y="11.1" class="st1" width="11.3" height="0.5"/>
		<path class="st5" d="M13.1,26.5c0,0.2-0.2,0.4-0.4,0.4H2.2c-0.2,0-0.4-0.2-0.4-0.4l0,0C1.8,26.2,2,26,2.2,26h10.5
			C12.9,26,13.1,26.2,13.1,26.5L13.1,26.5z"/>
		<rect x="1.8" y="21" class="st1" width="11.3" height="0.2"/>
		<rect x="1.9" y="17.9" class="st3" width="11.2" height="0.2"/>
		<rect x="1.9" y="15.6" class="st3" width="11.2" height="0.2"/>
		<rect x="1.9" y="13.3" class="st3" width="11.2" height="0.2"/>
		<g>
			<rect x="3.6" y="23.9" class="st1" width="0.3" height="5.5"/>
			
				<rect x="3.6" y="23.9" transform="matrix(0.7049 -0.7093 0.7093 0.7049 -17.7605 10.506)" class="st1" width="0.3" height="5.5"/>
			<rect x="1" y="26.5" transform="matrix(0.7084 -0.7058 0.7058 0.7084 -17.6802 10.3991)" class="st1" width="5.5" height="0.3"/>
			<rect x="1" y="26.5" class="st1" width="5.5" height="0.3"/>
			<path class="st0" d="M3.7,29.5c-1.6,0-2.9-1.3-2.9-2.9c0-1.6,1.3-2.9,2.9-2.9s2.9,1.3,2.9,2.9C6.7,28.2,5.4,29.5,3.7,29.5z
				 M3.7,24.1c-1.4,0-2.5,1.1-2.5,2.5c0,1.4,1.1,2.5,2.5,2.5c1.4,0,2.5-1.1,2.5-2.5C6.3,25.2,5.1,24.1,3.7,24.1z"/>
			<path class="st6" d="M4.3,26.6c0,0.3-0.3,0.6-0.6,0.6c-0.3,0-0.6-0.3-0.6-0.6c0-0.3,0.3-0.6,0.6-0.6C4.1,26,4.3,26.3,4.3,26.6z"
				/>
			<path class="st3" d="M4.1,26.6c0,0.2-0.1,0.3-0.3,0.3c-0.2,0-0.3-0.1-0.3-0.3c0-0.2,0.1-0.3,0.3-0.3C3.9,26.3,4.1,26.4,4.1,26.6z
				"/>
		</g>
		<g>
			<rect x="11.2" y="23.9" class="st1" width="0.3" height="5.5"/>
			
				<rect x="11.2" y="23.9" transform="matrix(0.7044 -0.7098 0.7098 0.7044 -15.5378 15.8828)" class="st1" width="0.3" height="5.5"/>
			<polygon class="st1" points="9.3,28.4 9.5,28.6 13.3,24.8 13.1,24.6 			"/>
			<rect x="8.6" y="26.5" class="st1" width="5.5" height="0.3"/>
			<path class="st0" d="M11.3,29.5c-1.6,0-2.9-1.3-2.9-2.9c0-1.6,1.3-2.9,2.9-2.9c1.6,0,2.9,1.3,2.9,2.9
				C14.2,28.2,12.9,29.5,11.3,29.5z M11.3,24.1c-1.4,0-2.5,1.1-2.5,2.5c0,1.4,1.1,2.5,2.5,2.5c1.4,0,2.5-1.1,2.5-2.5
				C13.8,25.2,12.7,24.1,11.3,24.1z"/>
			<path class="st6" d="M11.9,26.6c0,0.3-0.3,0.6-0.6,0.6c-0.3,0-0.6-0.3-0.6-0.6c0-0.3,0.3-0.6,0.6-0.6
				C11.6,26,11.9,26.3,11.9,26.6z"/>
			<path class="st3" d="M11.6,26.6c0,0.2-0.1,0.3-0.3,0.3c-0.2,0-0.3-0.1-0.3-0.3c0-0.2,0.1-0.3,0.3-0.3
				C11.5,26.3,11.6,26.4,11.6,26.6z"/>
		</g>
		<path class="st0" d="M4.1,17.9c0.6,0,1.2-0.5,1.2-1.2H2.9C2.9,17.4,3.4,17.9,4.1,17.9z"/>
		<g>
			<path class="st0" d="M8.9,17.7c0,0.1-0.1,0.3-0.3,0.3H6.7c-0.2,0-0.3-0.1-0.3-0.3v-1c0-0.2,0.1-0.3,0.3-0.3h1.8
				c0.1,0,0.3,0.1,0.3,0.3V17.7z"/>
			<rect x="6.7" y="16.1" class="st0" width="1.9" height="0.3"/>
		</g>
		<g>
			<path class="st0" d="M11.2,17.7c0,0.1-0.1,0.3-0.3,0.3h-0.4c-0.1,0-0.3-0.1-0.3-0.3v-1c0-0.2,0.1-0.3,0.3-0.3h0.4
				c0.2,0,0.3,0.1,0.3,0.3V17.7z"/>
			<path class="st0" d="M10.9,16.7c0,0.1-0.1,0.2-0.2,0.2l0,0c-0.1,0-0.2-0.1-0.2-0.2v-0.5c0-0.1,0.1-0.2,0.2-0.2l0,0
				c0.1,0,0.2,0.1,0.2,0.2V16.7z"/>
		</g>
	</g>
</g>
</svg>
